<svg width="62" height="62" viewBox="0 0 62 62" fill="none" xmlns="http://www.w3.org/2000/svg">
<path d="M61.0446 31.1013C61.0446 47.6699 47.6131 61.1013 31.0446 61.1013C14.476 61.1013 1.04456 47.6699 1.04456 31.1013C1.04456 14.5328 14.476 1.10135 31.0446 1.10135C47.6131 1.10135 61.0446 14.5328 61.0446 31.1013Z" fill="white"/>
<path d="M26.3696 26.4264H35.1196V35.1764" fill="white"/>
<path d="M26.3696 35.1764L35.1196 26.4264M35.1196 26.4264H26.3696M35.1196 26.4264V35.1764M61.0446 31.1013C61.0446 47.6699 47.6131 61.1013 31.0446 61.1013C14.476 61.1013 1.04456 47.6699 1.04456 31.1013C1.04456 14.5328 14.476 1.10135 31.0446 1.10135C47.6131 1.10135 61.0446 14.5328 61.0446 31.1013Z" stroke="black" stroke-width="1.75" stroke-linecap="round" stroke-linejoin="round"/>
</svg>
