<svg width="157" height="157" viewBox="0 0 157 157" fill="none" xmlns="http://www.w3.org/2000/svg">
<path d="M155 78.5C155 120.75 120.75 155 78.5 155C36.2502 155 1.99998 120.75 1.99998 78.5C1.99998 36.2502 36.2502 2 78.5 2C120.75 2 155 36.2502 155 78.5Z" fill="white"/>
<path d="M78.5003 35.5V119L116.422 78.8908" fill="white"/>
<path d="M42.9215 78.8908L78.5003 119M78.5003 119V35.5M78.5003 119L116.422 78.8908M155 78.5C155 120.75 120.75 155 78.5 155C36.2502 155 1.99998 120.75 1.99998 78.5C1.99998 36.2502 36.2502 2 78.5 2C120.75 2 155 36.2502 155 78.5Z" stroke="black" stroke-width="3" stroke-linecap="round" stroke-linejoin="round"/>
</svg>
